<svg width="28" height="28" viewBox="0 0 28 28" fill="none" xmlns="http://www.w3.org/2000/svg">
<path d="M6.73168 14.0934C10.7302 12.3517 13.396 11.2033 14.7288 10.6485C18.5388 9.06433 19.3295 8.78919 19.846 8.77987C19.9595 8.77804 20.2124 8.80612 20.3774 8.93951C20.5145 9.05201 20.5531 9.20415 20.5724 9.31097C20.5895 9.41769 20.6131 9.6609 20.5938 9.85076C20.3881 12.0193 19.4945 17.2818 19.0402 19.7107C18.8495 20.7384 18.4702 21.083 18.1038 21.1166C17.3067 21.1899 16.7024 20.5903 15.931 20.0848C14.7245 19.2935 14.0431 18.801 12.871 18.029C11.5167 17.1367 12.3952 16.6462 13.1667 15.8448C13.3681 15.635 16.8781 12.4432 16.9445 12.1537C16.9531 12.1175 16.9617 11.9825 16.8802 11.9113C16.801 11.84 16.6831 11.8644 16.5974 11.8837C16.4752 11.9111 14.5488 13.1857 10.8117 15.7072C10.2652 16.083 9.77025 16.2663 9.32453 16.2566C8.83596 16.2461 7.89311 15.9798 7.19239 15.7522C6.33525 15.473 5.65168 15.3253 5.71168 14.8511C5.74168 14.6043 6.08239 14.3516 6.73168 14.0934Z" fill="white"/>
</svg>
